<?xml version="1.0" encoding="UTF-8" standalone="no"?>
<!-- Created with Inkscape (http://www.inkscape.org/) -->

<svg
   width="210mm"
   height="297mm"
   viewBox="0 0 210 297"
   version="1.1"
   id="svg1481"
   inkscape:version="1.1 (c68e22c387, 2021-05-23)"
   sodipodi:docname="ellipse.svg"
   xmlns:inkscape="http://www.inkscape.org/namespaces/inkscape"
   xmlns:sodipodi="http://sodipodi.sourceforge.net/DTD/sodipodi-0.dtd"
   xmlns="http://www.w3.org/2000/svg"
   xmlns:svg="http://www.w3.org/2000/svg">
  <sodipodi:namedview
     id="namedview1483"
     pagecolor="#ffffff"
     bordercolor="#666666"
     borderopacity="1.0"
     inkscape:pageshadow="2"
     inkscape:pageopacity="0.0"
     inkscape:pagecheckerboard="0"
     inkscape:document-units="mm"
     showgrid="false"
     inkscape:zoom="3.6645033"
     inkscape:cx="562.2863"
     inkscape:cy="669.53139"
     inkscape:window-width="1920"
     inkscape:window-height="1017"
     inkscape:window-x="-8"
     inkscape:window-y="-8"
     inkscape:window-maximized="1"
     inkscape:current-layer="layer1" />
  <defs
     id="defs1478">
    <clipPath
       clipPathUnits="userSpaceOnUse"
       id="clipEmfPath1">
      <path
         d="M 1.4399252,5.4397175 L 316.94354,5.4397175 L 316.94354,211.34902 L 1.4399252,211.34902 z"
         id="path1565" />
    </clipPath>
    <pattern
       id="EMFhbasepattern"
       patternUnits="userSpaceOnUse"
       width="6"
       height="6"
       x="0"
       y="0" />
    <clipPath
       clipPathUnits="userSpaceOnUse"
       id="clipEmfPath1-6">
      <path
         d="M 1.4399252,1.4399252 H 870.83477 V 309.58392 H 1.4399252 Z"
         id="path2307" />
    </clipPath>
  </defs>
  <g
     inkscape:label="Слой 1"
     inkscape:groupmode="layer"
     id="layer1">
    <path
       style="fill:#caf297;fill-opacity:1;stroke:#7030a0;stroke-width:2.99984px;stroke-linecap:butt;stroke-linejoin:round;stroke-miterlimit:4;stroke-dasharray:none;stroke-opacity:1"
       clip-path="url(#clipEmfPath1-6)"
       d="M 92.165213,2.8798504 2.8798504,85.225573 147.97231,219.18862 231.66797,76.846009 113.09413,118.71383 81.005793,67.076516 Z"
       id="path2327"
       transform="matrix(0.26458333,0,0,0.26458333,104.45913,148.85293)" />
    <path
       style="fill:#ff0000;fill-opacity:1;fill-rule:nonzero;stroke:#ff0000;stroke-width:0.0026457px;stroke-linecap:butt;stroke-linejoin:round;stroke-miterlimit:4;stroke-dasharray:none;stroke-opacity:1"
       d="m 180.61019,190.87992 -14.72595,-21.30843 0.4339,-0.30161 14.72859,21.30843 z m 1.09003,-0.75138 c 0.33071,0.47888 0.21165,1.1403 -0.26987,1.47101 -0.48151,0.33336 -1.14029,0.21166 -1.471,-0.26721 -0.33336,-0.48152 -0.2143,-1.1403 0.26721,-1.47366 0.48152,-0.33335 1.1403,-0.21165 1.47366,0.26986 z m -15.67575,-18.24471 -0.22224,-2.8944 2.62982,1.2329 c 0.13228,0.0608 0.19049,0.21959 0.12699,0.35188 -0.0609,0.13228 -0.21959,0.18784 -0.35188,0.12699 l -2.21709,-1.03976 0.37569,-0.25928 0.18785,2.44198 c 0.0106,0.14551 -0.0979,0.27251 -0.24341,0.28309 -0.14551,0.0132 -0.27251,-0.0952 -0.28573,-0.2434 z"
       id="path1575" />
    <path
       style="fill:#00b050;fill-opacity:1;fill-rule:nonzero;stroke:#00b050;stroke-width:0.00999948px;stroke-linecap:butt;stroke-linejoin:round;stroke-miterlimit:4;stroke-dasharray:none;stroke-opacity:1"
       clip-path="url(#clipEmfPath1)"
       d="m 201.23955,105.79451 -0.42998,-4.61976 -0.29998,-4.679762 -0.1,-2.749857 2.99985,-0.109994 0.09,2.669861 0.29998,4.599762 0.42998,4.61976 z m -0.85996,-21.138907 0.05,-1.879902 0.22999,-4.43977 0.34998,-4.369773 0.15999,-1.409927 2.97985,0.339983 -0.15,1.319931 -0.34998,4.269778 -0.22999,4.359774 -0.04,1.879902 z m 2.0499,-21.098904 0.38998,-2.199886 0.83995,-4.019791 0.94995,-3.919796 0.46998,-1.709912 2.88985,0.799959 -0.44998,1.619916 -0.92995,3.819801 -0.81996,3.919797 -0.37998,2.199885 z m 5.42971,-20.518934 0.23999,-0.689965 1.37993,-3.439821 1.46992,-3.309828 1.57992,-3.189834 0.29999,-0.549972 2.62986,1.449925 -0.23999,0.429978 -1.51992,3.06984 -1.42993,3.209833 -1.33993,3.339827 -0.24998,0.689964 z m 9.7395,-18.959016 0.20999,-0.319983 1.9499,-2.559867 2.02989,-2.399875 2.10989,-2.229885 1.8499,-1.71991 2.0399,2.189886 -1.71991,1.599917 -1.9899,2.089891 -1.9299,2.279882 -1.8499,2.439873 -0.21999,0.309984 z m 15.81918,-14.6792372 2.23988,-1.1299413 2.56987,-1.039946 2.64986,-0.8199574 2.70986,-0.5799699 1.66991,-0.2099891 0.35998,2.9798452 -1.39992,0.1599917 -2.44988,0.519973 -2.41987,0.739962 -2.33988,0.939951 -2.24988,1.119942 z m 21.1889,-3.4898187 h 0.03 l 2.71986,0.6199678 2.67986,0.8399563 2.63987,1.059945 2.57986,1.269934 1.06995,0.6099688 -1.50992,2.599864 -0.87996,-0.519972 -2.38987,-1.16994 -2.41988,-0.989948 -2.43987,-0.7699603 -2.46987,-0.5799699 h -0.03 z m 19.269,9.7694929 1.26993,1.099943 2.32988,2.239883 2.25988,2.399876 2.19989,2.569866 0.42997,0.549971 -2.36987,1.849904 -0.34998,-0.449976 -2.0999,-2.469872 -2.15988,-2.299881 -2.18989,-2.119889 -1.27993,-1.099943 z m 13.77928,16.299153 0.43998,0.689964 1.8999,3.189835 1.8199,3.329827 1.71991,3.429821 -2.67986,1.339931 -1.66991,-3.339827 -1.75991,-3.229832 -1.8399,-3.089839 -0.44998,-0.679965 z m 9.49951,19.049011 1.04994,2.769856 1.34993,3.949795 1.26994,4.059789 0.19998,0.719962 -2.89984,0.799959 -0.17,-0.629967 -1.22993,-3.979794 -1.32993,-3.8498 -1.04995,-2.779855 z m 6.08968,20.308945 0.68996,3.249831 0.80996,4.439769 0.63997,4.209782 -2.96985,0.449976 -0.61997,-4.129785 -0.78995,-4.339775 -0.69997,-3.249831 z m 3.13984,20.928913 0.05,0.559971 0.29999,4.679757 0.15999,4.619764 0.02,2.24988 -2.99985,0.02 -0.01,-2.15989 -0.16,-4.539764 -0.29998,-4.599761 -0.05,-0.559971 z m 0.31998,21.188902 -0.11999,2.19988 -0.34999,4.37978 -0.47997,4.27977 -0.17999,1.21994 -2.96985,-0.41998 0.15999,-1.12994 0.47998,-4.19978 0.34998,-4.27978 0.11,-2.19988 z m -2.66986,21.0489 -0.44998,2.14989 -0.94995,3.9198 -1.04994,3.7998 -0.59997,1.8799 -2.85985,-0.90995 0.56997,-1.76991 1.02994,-3.7098 0.92995,-3.81981 0.44998,-2.15988 z m -6.15968,20.30895 -0.11,0.26999 -1.46992,3.30982 -1.57992,3.18984 -1.66991,3.02984 -0.68996,1.11994 -2.55987,-1.55992 0.61997,-1.00994 1.60991,-2.90985 1.51992,-3.07984 1.42993,-3.19984 0.10999,-0.27998 z m -10.80944,18.47904 -1.60992,1.8999 -2.10989,2.22988 -2.18988,2.0399 -2.28988,1.8699 -0.70997,0.49998 -1.72991,-2.44988 0.54997,-0.37998 2.12989,-1.72991 2.0699,-1.9199 1.98989,-2.08989 1.60992,-1.9099 z m -17.05911,13.05932 -1.00995,0.40998 -2.63986,0.80996 -2.69986,0.58997 -2.75986,0.33998 -2.77986,0.1 -0.46997,-0.02 0.15999,-2.98985 0.19999,0.02 2.51987,-0.08 2.49987,-0.29998 2.45987,-0.52997 2.39988,-0.72997 0.99994,-0.39997 z m -21.56888,0.65997 -1.22994,-0.38998 -2.63986,-1.06995 -2.58987,-1.25993 -2.54987,-1.47993 -2.04989,-1.36992 1.67991,-2.48987 1.87991,1.26993 2.35987,1.37993 2.39988,1.17994 2.41987,0.97995 1.21994,0.38998 z m -18.13906,-11.5194 -0.52997,-0.51998 -2.25989,-2.39987 -2.19988,-2.56987 -2.12989,-2.72986 -0.80996,-1.13994 2.44987,-1.73991 0.72997,1.02995 2.04989,2.62986 2.09989,2.46987 2.15989,2.28988 0.52997,0.51998 z m -12.85933,-17.01912 -0.18999,-0.32998 -1.81991,-3.32983 -1.73991,-3.45982 -1.63991,-3.59981 -0.08,-0.19999 2.76986,-1.14994 0.04,0.1 1.59992,3.49982 1.67991,3.37982 1.75991,3.22984 0.19999,0.31998 z m -8.77955,-19.38899 -0.96995,-2.83986 -1.26993,-4.04979 -1.13994,-4.16978 -0.13999,-0.54997 2.91984,-0.70996 0.11,0.46997 1.11994,4.06979 1.22994,3.96979 0.97994,2.83986 z m -5.49971,-20.47894 -0.65997,-3.63981 -0.68996,-4.51977 -0.45998,-3.7798 2.96985,-0.36998 0.45997,3.69981 0.66997,4.43977 0.65996,3.63981 z"
       id="path1577"
       transform="matrix(0.26458333,0,0,0.26458333,112.29567,146.42694)" />
    <path
       style="fill:#000000;fill-opacity:1;fill-rule:nonzero;stroke:#000000;stroke-width:0.0026457px;stroke-linecap:butt;stroke-linejoin:round;stroke-miterlimit:4;stroke-dasharray:none;stroke-opacity:1"
       d="m 165.41596,151.71039 -0.0212,0.79107 0.26456,0.008 0.0212,-0.79371 z m 0.52914,0.0132 -0.0212,0.79371 0.26457,0.005 0.0212,-0.79371 z m -0.57148,1.57155 -0.0212,0.7937 0.26457,0.008 0.0212,-0.7937 z m 0.52915,0.0159 -0.0212,0.79106 0.26457,0.008 0.0212,-0.79371 z m -0.56883,1.57154 -0.0212,0.79371 0.26457,0.008 0.0212,-0.79371 z m 0.52914,0.0132 -0.0212,0.79371 0.26457,0.008 0.0212,-0.79371 z m -0.57147,1.57419 -0.0212,0.79371 0.26457,0.005 0.0212,-0.79106 z m 0.52914,0.0132 -0.0212,0.79371 0.26456,0.008 0.0212,-0.79371 z m -0.56883,1.57419 -0.0212,0.79371 0.26457,0.005 0.0212,-0.79371 z m 0.5265,0.0132 -0.0185,0.79371 0.26457,0.005 0.0185,-0.79106 z m -0.56883,1.57419 -0.0212,0.79106 0.26457,0.008 0.0212,-0.79371 z m 0.52914,0.0132 -0.0212,0.79371 0.26457,0.005 0.0212,-0.79371 z m -0.57147,1.57154 -0.0185,0.79371 0.26457,0.008 0.0185,-0.79371 z m 0.52914,0.0159 -0.0185,0.79107 0.26193,0.008 0.0212,-0.79371 z m -0.56882,1.57155 -0.0212,0.79371 0.26457,0.008 0.0212,-0.79371 z m 0.52913,0.0132 -0.0212,0.7937 0.26457,0.008 0.0212,-0.7937 z m -0.57147,1.57419 -0.0212,0.7937 0.26457,0.005 0.0212,-0.79106 z m 0.52914,0.0132 -0.0212,0.7937 0.26457,0.008 0.0212,-0.7937 z m -0.56882,1.57418 -0.0212,0.79371 0.26457,0.005 0.0212,-0.7937 z m 0.52914,0.0132 -0.0212,0.79371 0.26457,0.005 0.0212,-0.79106 z m -0.57147,1.57419 -0.0212,0.79107 0.26457,0.008 0.0212,-0.79371 z m 0.52914,0.0132 -0.0212,0.79371 0.26457,0.005 0.0212,-0.79371 z m -0.57147,1.57155 -0.0185,0.79371 0.26456,0.008 0.0185,-0.79371 z m 0.52914,0.0159 -0.0185,0.79106 0.26457,0.008 0.0185,-0.79371 z m -0.56883,1.57154 -0.0212,0.79371 0.26457,0.008 0.0212,-0.79371 z m 0.52914,0.0132 -0.0212,0.79371 0.26457,0.008 0.0212,-0.79371 z m -0.57147,1.57419 -0.0185,0.79371 0.26457,0.005 0.0185,-0.79107 z m 0.52914,0.0132 -0.0212,0.79371 0.26457,0.008 0.0212,-0.79371 z m -0.56882,1.57419 -0.0212,0.79371 0.26457,0.005 0.0212,-0.79371 z m 0.52913,0.0132 -0.0212,0.79371 0.26457,0.005 0.0212,-0.79106 z m -0.57147,1.57419 -0.0212,0.79106 0.26457,0.008 0.0212,-0.79371 z m 0.52914,0.0132 -0.0212,0.79371 0.26457,0.005 0.0212,-0.79371 z m -0.56882,1.57154 -0.0212,0.79371 0.26456,0.008 0.0212,-0.79371 z m 0.52914,0.0159 -0.0212,0.79106 0.26457,0.008 0.0185,-0.79371 z m -0.57147,1.57154 -0.0212,0.79371 0.26457,0.008 0.0212,-0.79371 z m 0.52914,0.0132 -0.0212,0.79371 0.26457,0.008 0.0212,-0.79371 z m -0.57147,1.57419 -0.0185,0.79371 0.26457,0.005 0.0185,-0.79106 z m 0.52913,0.0132 -0.0185,0.79371 0.26457,0.008 0.0185,-0.79371 z m -0.56882,1.57419 -0.0212,0.79371 0.26457,0.005 0.0212,-0.79371 z m 0.52914,0.0132 -0.0212,0.79371 0.26457,0.005 0.0212,-0.79106 z m -0.57147,1.57419 -0.0212,0.79107 0.26457,0.008 0.0212,-0.79371 z m 0.52914,0.0132 -0.0212,0.79371 0.26457,0.005 0.0212,-0.79371 z m -0.56883,1.57154 -0.0212,0.79372 0.26457,0.008 0.0212,-0.79371 z m 0.52914,0.0159 -0.0212,0.79107 0.26457,0.008 0.0212,-0.79371 z m -0.57147,1.57155 -0.0212,0.79371 0.26457,0.008 0.0212,-0.79371 z m 0.52914,0.0132 -0.0212,0.7937 0.26457,0.008 0.0212,-0.7937 z m -0.56882,1.57419 -0.0212,0.7937 0.26457,0.005 0.0212,-0.79106 z m 0.52649,0.0132 -0.0185,0.7937 0.26457,0.008 0.0185,-0.79371 z m -0.56882,1.57418 -0.0212,0.79371 0.26457,0.005 0.0212,-0.79371 z m 0.52913,0.0132 -0.0212,0.79371 0.26457,0.005 0.0212,-0.79106 z m -0.57147,1.57419 -0.0185,0.79107 0.26457,0.008 0.0185,-0.79371 z m 0.52914,0.0132 -0.0185,0.79371 0.26193,0.005 0.0212,-0.79371 z m -0.56882,1.57155 -0.0212,0.79371 0.26457,0.008 0.0212,-0.79372 z m 0.52914,0.0159 -0.0212,0.79106 0.26457,0.008 0.0212,-0.79371 z m -0.57147,1.57154 -0.0212,0.79371 0.26457,0.008 0.0212,-0.79371 z m 0.52914,0.0132 -0.0212,0.79371 0.26457,0.008 0.0212,-0.79371 z m -0.56883,1.57419 -0.0212,0.7937 0.26457,0.005 0.0212,-0.79106 z m 0.52914,0.0132 -0.0212,0.79371 0.26457,0.008 0.0212,-0.79371 z m -0.57147,1.57419 -0.0212,0.7937 0.26457,0.005 0.0212,-0.7937 z m 0.52914,0.0132 -0.0212,0.7937 0.26457,0.005 0.0212,-0.7937 z m -0.57147,1.57419 -0.0185,0.79106 0.26457,0.008 0.0185,-0.79371 z m 0.52914,0.0132 -0.0185,0.79371 0.26457,0.005 0.0185,-0.79371 z m -0.56883,1.57154 v 0.0397 l 0.26193,0.005 0.003,-0.037 z m 0.52914,0.0132 -0.003,0.0397 0.26457,0.008 0.003,-0.0397 z"
       id="path1579" />
    <text
       xml:space="preserve"
       style="font-style:normal;font-variant:normal;font-weight:400;font-size:5.6224px;line-height:125%;font-family:Calibri;text-align:start;letter-spacing:0px;word-spacing:0px;text-anchor:start;fill:#000000;fill-opacity:1;stroke:none;stroke-width:0.264583"
       x="136.37103"
       y="176.00551"
       id="text1585"><tspan
         sodipodi:role="line"
         x="136.37103"
         y="176.00551"
         id="tspan1583"
         style="stroke-width:0.264583"><tspan
           dx="0"
           dy="0"
           style="font-style:normal;font-variant:normal;font-weight:400;font-size:5.6224px;font-family:Calibri;fill:#000000;stroke-width:0.264583"
           id="tspan1581">C</tspan></tspan></text>
    <text
       xml:space="preserve"
       style="font-style:normal;font-variant:normal;font-weight:400;font-size:3.77031px;line-height:125%;font-family:Calibri;text-align:start;letter-spacing:0px;word-spacing:0px;text-anchor:start;fill:#000000;fill-opacity:1;stroke:none;stroke-width:0.264583"
       x="139.37654"
       y="177.36011"
       id="text1591"><tspan
         sodipodi:role="line"
         x="139.37654"
         y="177.36011"
         id="tspan1589"
         style="stroke-width:0.264583"><tspan
           dx="0"
           dy="0"
           style="font-style:normal;font-variant:normal;font-weight:400;font-size:3.77031px;font-family:Calibri;fill:#000000;stroke-width:0.264583"
           id="tspan1587">i</tspan></tspan></text>
    <text
       xml:space="preserve"
       style="font-style:normal;font-variant:normal;font-weight:400;font-size:5.6224px;line-height:125%;font-family:Calibri;text-align:start;letter-spacing:0px;word-spacing:0px;text-anchor:start;fill:#000000;fill-opacity:1;stroke:none;stroke-width:0.264583"
       x="169.03775"
       y="171.29709"
       id="text1597"><tspan
         sodipodi:role="line"
         x="169.03775"
         y="171.29709"
         id="tspan1595"
         style="stroke-width:0.264583"><tspan
           dx="0"
           dy="0"
           style="font-style:normal;font-variant:normal;font-weight:400;font-size:5.6224px;font-family:Calibri;fill:#000000;stroke-width:0.264583"
           id="tspan1593">M</tspan></tspan></text>
    <text
       xml:space="preserve"
       style="font-style:normal;font-variant:normal;font-weight:400;font-size:3.77031px;line-height:125%;font-family:Calibri;text-align:start;letter-spacing:0px;word-spacing:0px;text-anchor:start;fill:#000000;fill-opacity:1;stroke:none;stroke-width:0.264583"
       x="173.86351"
       y="172.65169"
       id="text1603"><tspan
         sodipodi:role="line"
         x="173.86351"
         y="172.65169"
         id="tspan1601"
         style="stroke-width:0.264583"><tspan
           dx="0"
           dy="0"
           style="font-style:normal;font-variant:normal;font-weight:400;font-size:3.77031px;font-family:Calibri;fill:#000000;stroke-width:0.264583"
           id="tspan1599">i</tspan></tspan></text>
    <text
       xml:space="preserve"
       style="font-style:normal;font-variant:normal;font-weight:400;font-size:5.6224px;line-height:125%;font-family:Calibri;text-align:start;letter-spacing:0px;word-spacing:0px;text-anchor:start;fill:#000000;fill-opacity:1;stroke:none;stroke-width:0.264583"
       x="179.18867"
       y="186.71996"
       id="text1609"><tspan
         sodipodi:role="line"
         x="179.18867"
         y="186.71996"
         id="tspan1607"
         style="stroke-width:0.264583"><tspan
           dx="0"
           dy="0"
           style="font-style:normal;font-variant:normal;font-weight:400;font-size:5.6224px;font-family:Calibri;fill:#000000;stroke-width:0.264583"
           id="tspan1605">M</tspan></tspan></text>
    <text
       xml:space="preserve"
       style="font-style:normal;font-variant:normal;font-weight:400;font-size:3.77031px;line-height:125%;font-family:Calibri;text-align:start;letter-spacing:0px;word-spacing:0px;text-anchor:start;fill:#000000;fill-opacity:1;stroke:none;stroke-width:0.264583"
       x="184.01442"
       y="188.07455"
       id="text1615"><tspan
         sodipodi:role="line"
         x="184.01442"
         y="188.07455"
         id="tspan1613"
         style="stroke-width:0.264583"><tspan
           dx="0"
           dy="0"
           style="font-style:normal;font-variant:normal;font-weight:400;font-size:3.77031px;font-family:Calibri;fill:#000000;stroke-width:0.264583"
           id="tspan1611">i</tspan></tspan></text>
    <text
       xml:space="preserve"
       style="font-style:normal;font-variant:normal;font-weight:400;font-size:3.77031px;line-height:125%;font-family:Calibri;text-align:start;letter-spacing:0px;word-spacing:0px;text-anchor:start;fill:#000000;fill-opacity:1;stroke:none;stroke-width:0.264583"
       x="184.86104"
       y="188.07455"
       id="text1621"><tspan
         sodipodi:role="line"
         x="184.86104"
         y="188.07455"
         id="tspan1619"
         style="stroke-width:0.264583"><tspan
           dx="0"
           dy="0"
           style="font-style:normal;font-variant:normal;font-weight:400;font-size:3.77031px;font-family:Calibri;fill:#000000;stroke-width:0.264583"
           id="tspan1617">-</tspan></tspan></text>
    <text
       xml:space="preserve"
       style="font-style:normal;font-variant:normal;font-weight:400;font-size:3.77031px;line-height:125%;font-family:Calibri;text-align:start;letter-spacing:0px;word-spacing:0px;text-anchor:start;fill:#000000;fill-opacity:1;stroke:none;stroke-width:0.264583"
       x="186.00398"
       y="188.07455"
       id="text1627"><tspan
         sodipodi:role="line"
         x="186.00398"
         y="188.07455"
         id="tspan1625"
         style="stroke-width:0.264583"><tspan
           dx="0"
           dy="0"
           style="font-style:normal;font-variant:normal;font-weight:400;font-size:3.77031px;font-family:Calibri;fill:#000000;stroke-width:0.264583"
           id="tspan1623">1</tspan></tspan></text>
    <path
       style="fill:#ff0000;fill-opacity:1;fill-rule:nonzero;stroke:#ff0000;stroke-width:0.0026457px;stroke-linecap:butt;stroke-linejoin:round;stroke-miterlimit:4;stroke-dasharray:none;stroke-opacity:1"
       d="m 166.29697,169.15611 11.80245,-13.35547 -0.39685,-0.34923 -11.7998,13.35283 z m -0.98949,-0.87837 c -0.38891,0.43919 -0.34658,1.10855 0.0926,1.49482 0.43654,0.38627 1.1059,0.34659 1.49217,-0.0926 0.38627,-0.43654 0.34659,-1.1059 -0.0926,-1.49217 -0.43654,-0.38892 -1.1059,-0.34659 -1.49217,0.0899 z m 12.37657,-10.19651 0.56353,-2.84941 -2.75681,0.91011 c -0.13758,0.0476 -0.2143,0.19579 -0.16668,0.33601 0.045,0.13757 0.19313,0.2143 0.33335,0.16668 l 2.32557,-0.76725 -0.34129,-0.30426 -0.47623,2.40494 c -0.0291,0.14287 0.0635,0.28309 0.20637,0.30954 0.14551,0.0291 0.28309,-0.0635 0.31219,-0.20636 z"
       id="path1629" />
    <text
       xml:space="preserve"
       style="font-style:normal;font-variant:normal;font-weight:400;font-size:5.6224px;line-height:125%;font-family:Calibri;text-align:start;letter-spacing:0px;word-spacing:0px;text-anchor:start;fill:#000000;fill-opacity:1;stroke:none;stroke-width:0.264583"
       x="178.46484"
       y="162.55138"
       id="text1635"><tspan
         sodipodi:role="line"
         x="178.46484"
         y="162.55138"
         id="tspan1633"
         style="stroke-width:0.264583"><tspan
           dx="0"
           dy="0"
           style="font-style:normal;font-variant:normal;font-weight:400;font-size:5.6224px;font-family:Calibri;fill:#000000;stroke-width:0.264583"
           id="tspan1631">M</tspan></tspan></text>
    <text
       xml:space="preserve"
       style="font-style:normal;font-variant:normal;font-weight:400;font-size:3.77031px;line-height:125%;font-family:Calibri;text-align:start;letter-spacing:0px;word-spacing:0px;text-anchor:start;fill:#000000;fill-opacity:1;stroke:none;stroke-width:0.264583"
       x="183.2906"
       y="163.90598"
       id="text1641"><tspan
         sodipodi:role="line"
         x="183.2906"
         y="163.90598"
         id="tspan1639"
         style="stroke-width:0.264583"><tspan
           dx="0"
           dy="0"
           style="font-style:normal;font-variant:normal;font-weight:400;font-size:3.77031px;font-family:Calibri;fill:#000000;stroke-width:0.264583"
           id="tspan1637">i+1</tspan></tspan></text>
  </g>
</svg>
