<?xml version="1.0" encoding="UTF-8" standalone="no"?>
<!-- Created with Inkscape (http://www.inkscape.org/) -->

<svg
   width="210mm"
   height="297mm"
   viewBox="0 0 744.09448819 1052.3622047"
   id="svg2"
   version="1.1"
   inkscape:version="1.1 (c68e22c387, 2021-05-23)"
   sodipodi:docname="toolpath.svg"
   xmlns:inkscape="http://www.inkscape.org/namespaces/inkscape"
   xmlns:sodipodi="http://sodipodi.sourceforge.net/DTD/sodipodi-0.dtd"
   xmlns="http://www.w3.org/2000/svg"
   xmlns:svg="http://www.w3.org/2000/svg"
   xmlns:rdf="http://www.w3.org/1999/02/22-rdf-syntax-ns#"
   xmlns:cc="http://creativecommons.org/ns#"
   xmlns:dc="http://purl.org/dc/elements/1.1/">
  <defs
     id="defs4">
    <marker
       style="overflow:visible;"
       id="Arrow1Mend"
       refX="0.0"
       refY="0.0"
       orient="auto"
       inkscape:stockid="Arrow1Mend"
       inkscape:isstock="true">
      <path
         transform="scale(0.4) rotate(180) translate(10,0)"
         style="fill-rule:evenodd;fill:context-stroke;stroke:context-stroke;stroke-width:1.0pt;"
         d="M 0.0,0.0 L 5.0,-5.0 L -12.5,0.0 L 5.0,5.0 L 0.0,0.0 z "
         id="path1633" />
    </marker>
    <clipPath
       id="clipEmfPath1"
       clipPathUnits="userSpaceOnUse">
      <path
         inkscape:connector-curvature="0"
         id="path4141"
         d="m 4.6537,4.50358 585.1653,0 0,178.34142 -585.1653,0 z" />
    </clipPath>
    <pattern
       y="0"
       x="0"
       height="6"
       width="6"
       patternUnits="userSpaceOnUse"
       id="EMFhbasepattern" />
    <clipPath
       id="clipEmfPath1-9"
       clipPathUnits="userSpaceOnUse">
      <path
         inkscape:connector-curvature="0"
         id="path4630"
         d="m 0,0 272.854,0 0,169.761 -272.854,0 z" />
    </clipPath>
    <clipPath
       id="clipEmfPath2"
       clipPathUnits="userSpaceOnUse">
      <path
         inkscape:connector-curvature="0"
         id="path4633"
         d="m 19.0016,146.56 10.9953,0 0,9.737 -10.9953,0 z" />
    </clipPath>
    <clipPath
       id="clipEmfPath3"
       clipPathUnits="userSpaceOnUse">
      <path
         inkscape:connector-curvature="0"
         id="path4636"
         d="m 16.4396,102.333 11.3156,0 0,8.701 -11.3156,0 z" />
    </clipPath>
    <clipPath
       id="clipEmfPath4"
       clipPathUnits="userSpaceOnUse">
      <path
         inkscape:connector-curvature="0"
         id="path4639"
         d="m 117.532,122.531 3.843,0 0,8.907 -3.843,0 z" />
    </clipPath>
    <clipPath
       id="clipEmfPath5"
       clipPathUnits="userSpaceOnUse">
      <path
         inkscape:connector-curvature="0"
         id="path4642"
         d="m 170.587,123.981 3.843,0 0,10.461 -3.843,0 z" />
    </clipPath>
    <clipPath
       id="clipEmfPath6"
       clipPathUnits="userSpaceOnUse">
      <path
         inkscape:connector-curvature="0"
         id="path4645"
         d="m 83.3722,122.531 7.6861,0 0,8.907 -7.6861,0 z" />
    </clipPath>
    <clipPath
       id="clipEmfPath7"
       clipPathUnits="userSpaceOnUse">
      <path
         inkscape:connector-curvature="0"
         id="path4648"
         d="m 200.905,123.981 7.686,0 0,10.461 -7.686,0 z" />
    </clipPath>
    <clipPath
       id="clipEmfPath8"
       clipPathUnits="userSpaceOnUse">
      <path
         inkscape:connector-curvature="0"
         id="path4651"
         d="m 250.117,122.531 11.529,0 0,11.911 -11.529,0 z" />
    </clipPath>
    <clipPath
       id="clipEmfPath9"
       clipPathUnits="userSpaceOnUse">
      <path
         inkscape:connector-curvature="0"
         id="path4654"
         d="m 22.7379,0 250.2231,0 0,11.2898 -250.2231,0 z" />
    </clipPath>
    <pattern
       y="0"
       x="0"
       height="6"
       width="6"
       patternUnits="userSpaceOnUse"
       id="EMFhbasepattern-1" />
  </defs>
  <sodipodi:namedview
     id="base"
     pagecolor="#ffffff"
     bordercolor="#666666"
     borderopacity="1.0"
     inkscape:pageopacity="0.0"
     inkscape:pageshadow="2"
     inkscape:zoom="2.1506845"
     inkscape:cx="392.20072"
     inkscape:cy="205.74845"
     inkscape:document-units="px"
     inkscape:current-layer="layer1"
     showgrid="false"
     inkscape:window-width="1920"
     inkscape:window-height="1017"
     inkscape:window-x="-8"
     inkscape:window-y="-8"
     inkscape:window-maximized="1"
     inkscape:pagecheckerboard="0" />
  <metadata
     id="metadata7">
    <rdf:RDF>
      <cc:Work
         rdf:about="">
        <dc:format>image/svg+xml</dc:format>
        <dc:type
           rdf:resource="http://purl.org/dc/dcmitype/StillImage" />
        <dc:title />
      </cc:Work>
    </rdf:RDF>
  </metadata>
  <g
     inkscape:label="Layer 1"
     inkscape:groupmode="layer"
     id="layer1">
    <path
       inkscape:connector-curvature="0"
       id="path4150"
       d="m 64.914556,189.81895 c 0,-48.87005 59.530124,-88.50942 132.988164,-88.50942 73.4596,0 132.98973,39.63937 132.98973,88.50942 0,48.89095 -59.53013,88.50991 -132.98973,88.50991 -73.45804,0 -132.988164,-39.61896 -132.988164,-88.50991 z"
       style="fill:#a5a5a5;fill-opacity:1;fill-rule:evenodd;stroke:none" />
    <path
       inkscape:connector-curvature="0"
       id="path4152"
       d="m 64.914556,189.81895 c 0,-48.87005 59.530124,-88.50942 132.988164,-88.50942 73.4596,0 132.98973,39.63937 132.98973,88.50942 0,48.89095 -59.53013,88.50991 -132.98973,88.50991 -73.45804,0 -132.988164,-39.61896 -132.988164,-88.50991"
       style="fill:none;stroke:#000000;stroke-width:2.0422101px;stroke-linecap:butt;stroke-linejoin:round;stroke-miterlimit:4;stroke-dasharray:none;stroke-opacity:1" />
    <path
       inkscape:connector-curvature="0"
       id="path4154"
       d="m 384.703,102.22854 41.15134,0 0,0 61.73588,0 144.01622,0 0,34.16625 0,0 0,14.66308 0,9.76173 -144.01622,0 -61.73588,0 0,0 -41.15134,0 0,-9.76173 -50.0947,2.53222 50.0947,-17.1953 z"
       style="fill:#ffffff;fill-opacity:1;fill-rule:evenodd;stroke:none" />
    <path
       inkscape:connector-curvature="0"
       id="path4156"
       d="m 384.703,102.22854 41.15134,0 0,0 61.73588,0 144.01622,0 0,34.16625 0,0 0,14.66308 0,9.76173 -144.01622,0 -61.73588,0 0,0 -41.15134,0 0,-9.76173 -50.0947,2.53222 50.0947,-17.1953 z"
       style="fill:none;stroke:#000000;stroke-width:1.875;stroke-linecap:butt;stroke-linejoin:miter;stroke-miterlimit:8;stroke-dasharray:none;stroke-opacity:1" />
    <path
       inkscape:connector-curvature="0"
       id="path4176"
       d="m 124.15855,168.19201 c 0,-14.99001 12.17179,-27.16143 27.18177,-27.16143 l 89.18297,0 c 15.00998,0 27.18177,12.17142 27.18177,27.16143 l 0,42.25336 c 0,15.01022 -12.17179,27.18278 -27.18177,27.18278 l -89.18297,0 c -15.00998,0 -27.18177,-12.17256 -27.18177,-27.18278 z"
       style="fill:#ffffff;fill-opacity:1;fill-rule:evenodd;stroke:none" />
    <path
       inkscape:connector-curvature="0"
       id="path4178"
       d="m 124.15855,168.19201 c 0,-14.99001 12.17179,-27.16143 27.18177,-27.16143 l 89.18297,0 c 15.00998,0 27.18177,12.17142 27.18177,27.16143 l 0,42.25336 c 0,15.01022 -12.17179,27.18278 -27.18177,27.18278 l -89.18297,0 c -15.00998,0 -27.18177,-12.17256 -27.18177,-27.18278 z"
       style="fill:none;stroke:#000000;stroke-width:2.0422101px;stroke-linecap:butt;stroke-linejoin:round;stroke-miterlimit:4;stroke-dasharray:none;stroke-opacity:1" />
    <path
       inkscape:connector-curvature="0"
       id="path4180"
       d="m 54.009146,190.65629 c 0,-56.05874 64.247834,-101.518258 143.505634,-101.518258 79.23853,0 143.48637,45.459518 143.48637,101.518258 0,56.05929 -64.24784,101.49853 -143.48637,101.49853 -79.2578,0 -143.505634,-45.43924 -143.505634,-101.49853"
       style="fill:none;stroke:#ff0000;stroke-width:4.0844202px;stroke-linecap:butt;stroke-linejoin:round;stroke-miterlimit:4;stroke-dasharray:none;stroke-opacity:1" />
    <path
       inkscape:connector-curvature="0"
       id="path4182"
       d="m 298.56337,26.278747 55.50807,0 0,0 83.26058,0 194.27442,0 0,18.992688 0,0 0,8.148361 0,5.432281 -194.27442,0 -86.48824,60.367603 3.22766,-60.367603 -55.50807,0 0,-5.432281 0,-8.148361 0,0 z"
       style="fill:#ffffff;fill-opacity:1;fill-rule:evenodd;stroke:none" />
    <path
       inkscape:connector-curvature="0"
       id="path4184"
       d="m 298.56337,26.278747 h 55.50807 v 0 h 83.26058 194.27442 v 18.992688 0 8.148361 5.432281 l -256.60923,0 -24.15343,60.367603 3.22766,-60.367603 h -55.50807 v -5.432281 -8.148361 0 z"
       style="fill:none;stroke:#000000;stroke-width:2.04221px;stroke-linecap:butt;stroke-linejoin:miter;stroke-miterlimit:8;stroke-dasharray:none;stroke-opacity:1"
       sodipodi:nodetypes="ccccccccccccccccc" />
    <path
       inkscape:connector-curvature="0"
       id="path4216"
       d="m 403.18513,169.56026 17.1147,0 0,0 25.6709,0 59.91807,0 0,5.90188 0,0 0,8.86323 0,20.68752 -59.91807,0 -25.6709,0 0,0 -17.1147,0 0,-20.68752 -21.38124,-4.02303 21.38124,-4.8402 z"
       style="fill:#ffffff;fill-opacity:1;fill-rule:evenodd;stroke:none" />
    <path
       inkscape:connector-curvature="0"
       id="path4218"
       d="m 414.24971,169.90233 h 24.56769 v 0 h 36.84987 86.01075 v 5.78799 0 8.69219 20.28831 H 475.66727 438.8174 v 0 h -24.56769 v -20.28831 l -30.69218,-3.94539 30.69218,-4.7468 z"
       style="fill:none;stroke:#000000;stroke-width:1.875;stroke-linecap:butt;stroke-linejoin:miter;stroke-miterlimit:8;stroke-dasharray:none;stroke-opacity:1" />
    <path
       inkscape:connector-curvature="0"
       id="path4218-8"
       d="m 349.901,265.95578 h 24.56769 v 0 h 36.84987 86.01075 v 5.78799 0 8.69219 20.28831 h -86.01075 -36.84987 v 0 H 349.901 V 290.02593 L 275.61805,175.35998 349.901,277.84648 Z"
       style="fill:#ffffff;stroke:#000000;stroke-width:1.875;stroke-linecap:butt;stroke-linejoin:miter;stroke-miterlimit:8;stroke-dasharray:none;stroke-opacity:1;fill-opacity:1"
       sodipodi:nodetypes="ccccccccccccccccc" />
    <path
       inkscape:connector-curvature="0"
       id="path4232"
       d="m 25.336553,26.278747 87.058957,0 0,0 37.29126,0 24.87344,0 0,24.996677 0,0 0,10.701185 0,7.147826 -24.87344,0 20.03388,36.494185 -57.32514,-36.494185 -87.058957,0 0,-7.147826 0,-10.701185 0,0 z"
       style="fill:#ffffff;fill-opacity:1;fill-rule:evenodd;stroke:none" />
    <path
       inkscape:connector-curvature="0"
       id="path4234"
       d="m 25.336553,26.278747 87.058957,0 0,0 37.29126,0 24.87344,0 0,24.996677 0,0 0,10.701185 0,7.147826 -24.87344,0 20.03388,36.494185 -57.32514,-36.494185 -87.058957,0 0,-7.147826 0,-10.701185 0,0 z"
       style="fill:none;stroke:#000000;stroke-width:2.0422101px;stroke-linecap:butt;stroke-linejoin:miter;stroke-miterlimit:8;stroke-dasharray:none;stroke-opacity:1" />
    <path
       inkscape:connector-curvature="0"
       id="path4248"
       d="m 344.4116,223.49509 15.27606,0 -12.70318,-44.62233 35.6161,44.62233 53.48665,0 0,5.41175 0,0 0,8.12708 0,18.95188 -53.48665,0 -22.91292,0 0,0 -15.27606,0 0,-18.95188 0,-8.12708 0,0 z"
       style="fill:#ffffff;fill-opacity:1;fill-rule:evenodd;stroke:none" />
    <path
       inkscape:connector-curvature="0"
       id="path4250"
       d="m 344.4116,223.49509 15.27606,0 -12.70318,-44.62233 35.6161,44.62233 53.48665,0 0,5.41175 0,0 0,8.12708 0,18.95188 -53.48665,0 -22.91292,0 0,0 -15.27606,0 0,-18.95188 0,-8.12708 0,0 z"
       style="fill:none;stroke:#000000;stroke-width:2.0422101px;stroke-linecap:butt;stroke-linejoin:miter;stroke-miterlimit:8;stroke-dasharray:none;stroke-opacity:1" />
    <path
       inkscape:connector-curvature="0"
       id="path4276"
       d="m 289.37399,58.852077 -17.88982,0 62.7169,86.671253 -89.55316,-86.671253 -62.61278,0 0,-5.432281 0,0 0,-8.148361 0,-18.992688 62.61278,0 26.83626,0 0,0 17.88982,0 0,18.992688 0,8.148361 0,0 z"
       style="fill:#ffffff;fill-opacity:1;fill-rule:evenodd;stroke:none" />
    <path
       inkscape:connector-curvature="0"
       id="path4278"
       d="m 289.37399,58.852077 -17.88982,0 62.7169,86.671253 -89.55316,-86.671253 -62.61278,0 0,-5.432281 0,0 0,-8.148361 0,-18.992688 62.61278,0 26.83626,0 0,0 17.88982,0 0,18.992688 0,8.148361 0,0 z"
       style="fill:none;stroke:#000000;stroke-width:2.0422101px;stroke-linecap:butt;stroke-linejoin:miter;stroke-miterlimit:8;stroke-dasharray:none;stroke-opacity:1" />
    <path
       inkscape:connector-curvature="0"
       id="path4304"
       d="m 326.48091,153.61061 c 0,-2.51204 2.08313,-4.55421 4.65525,-4.55421 2.57285,0 4.656,2.04217 4.656,4.55421 0,2.53231 -2.08315,4.57457 -4.656,4.57457 -2.57212,0 -4.65525,-2.04226 -4.65525,-4.57457 z"
       style="fill:#ffffff;fill-opacity:1;fill-rule:evenodd;stroke:none" />
    <path
       inkscape:connector-curvature="0"
       id="path4306"
       d="m 331.13616,149.0564 0,9.12878 m -4.65525,-4.57457 9.31125,0"
       style="fill:none;stroke:#000000;stroke-width:2.0422101px;stroke-linecap:butt;stroke-linejoin:round;stroke-miterlimit:4;stroke-dasharray:none;stroke-opacity:1" />
    <path
       inkscape:connector-curvature="0"
       id="path4308"
       d="m 326.48091,153.61061 c 0,-2.51204 2.08313,-4.55421 4.65525,-4.55421 2.57285,0 4.656,2.04217 4.656,4.55421 0,2.53231 -2.08315,4.57457 -4.656,4.57457 -2.57212,0 -4.65525,-2.04226 -4.65525,-4.57457"
       style="fill:none;stroke:#000000;stroke-width:2.0422101px;stroke-linecap:butt;stroke-linejoin:round;stroke-miterlimit:4;stroke-dasharray:none;stroke-opacity:1" />
    <path
       inkscape:connector-curvature="0"
       id="path4310"
       d="m 135.96246,170.80591 c 0,-9.39409 7.59754,-16.99116 16.99131,-16.99116 l 86.85611,0 c 9.37219,0 16.99056,7.59707 16.99056,16.99116 l 0,38.92461 c 0,9.37363 -7.61837,16.99122 -16.99056,16.99122 l -86.85611,0 c -9.39377,0 -16.99131,-7.61759 -16.99131,-16.99122 z"
       style="fill:#ffffff;fill-opacity:1;fill-rule:evenodd;stroke:none" />
    <path
       inkscape:connector-curvature="0"
       id="path4312"
       d="m 135.96246,170.80591 c 0,-9.39409 7.59754,-16.99116 16.99131,-16.99116 l 86.85611,0 c 9.37219,0 16.99056,7.59707 16.99056,16.99116 l 0,38.92461 c 0,9.37363 -7.61837,16.99122 -16.99056,16.99122 l -86.85611,0 c -9.39377,0 -16.99131,-7.61759 -16.99131,-16.99122 z"
       style="fill:none;stroke:#ff0000;stroke-width:4.0844202px;stroke-linecap:butt;stroke-linejoin:round;stroke-miterlimit:4;stroke-dasharray:none;stroke-opacity:1" />
    <path
       inkscape:connector-curvature="0"
       id="path4314"
       d="m 358.97116,177.46361 0,0.735 0.0772,0.69412 0.10027,0.73498 0.14659,0.69414 0.20823,0.67406 0.2468,0.69412 0.28537,0.65324 0.32392,0.63319 0.34707,0.61238 0.38561,0.5923 0.4319,0.55146 0.48589,0.55143 0.48588,0.49051 0.53217,0.44886 0.54758,0.42883 0.59385,0.40875 0.59386,0.34707 0.61699,0.30618 0.65558,0.28612 0.65555,0.22521 0.67869,0.18349 0.671,0.12272 0.69411,0.10188 0.69412,0.0385 0.69411,0 0.69414,-0.0385 0.69411,-0.10188 0.67098,-0.12272 0.65557,-0.18349 0.67097,-0.22521 0.63243,-0.28612 0.65555,-0.30618 0.57073,-0.34707 0.59385,-0.40875 0.5476,-0.42883 0.53214,-0.44886 0.4936,-0.49051 0.4936,-0.55143 0.4319,-0.55146 0.38563,-0.5923 0.34707,-0.61238 0.33162,-0.63319 0.28537,-0.65324 0.24679,-0.69412 0.1851,-0.67406 0.16203,-0.69414 0.12333,-0.73498 0.0772,-0.69412 0,-0.735 z"
       style="fill:#ff0000;fill-opacity:1;fill-rule:evenodd;stroke:none" />
    <path
       inkscape:connector-curvature="0"
       id="path4316"
       d="m 358.97116,177.46361 0,0.735 0.0772,0.69412 0.10027,0.73498 0.14659,0.69414 0.20823,0.67406 0.2468,0.69412 0.28537,0.65324 0.32392,0.63319 0.34707,0.61238 0.38561,0.5923 0.4319,0.55146 0.48589,0.55143 0.48588,0.49051 0.53217,0.44886 0.54758,0.42883 0.59385,0.40875 0.59386,0.34707 0.61699,0.30618 0.65558,0.28612 0.65555,0.22521 0.67869,0.18349 0.671,0.12272 0.69411,0.10188 0.69412,0.0385 0.69411,0 0.69414,-0.0385 0.69411,-0.10188 0.67098,-0.12272 0.65557,-0.18349 0.67097,-0.22521 0.63243,-0.28612 0.65555,-0.30618 0.57073,-0.34707 0.59385,-0.40875 0.5476,-0.42883 0.53214,-0.44886 0.4936,-0.49051 0.4936,-0.55143 0.4319,-0.55146 0.38563,-0.5923 0.34707,-0.61238 0.33162,-0.63319 0.28537,-0.65324 0.24679,-0.69412 0.1851,-0.67406 0.16203,-0.69414 0.12333,-0.73498 0.0772,-0.69412 0,-0.735"
       style="fill:none;stroke:#000000;stroke-width:2.45065212px;stroke-linecap:butt;stroke-linejoin:round;stroke-miterlimit:4;stroke-dasharray:none;stroke-opacity:1" />
    <path
       inkscape:connector-curvature="0"
       id="path4318"
       d="m 380.62003,177.46361 0,-0.71495 -0.0772,-0.71493 -0.12333,-0.73501 -0.16203,-0.69411 -0.18509,-0.69414 -0.2468,-0.67406 -0.28537,-0.65325 -0.33162,-0.63319 -0.34707,-0.63319 -0.38563,-0.59233 -0.4319,-0.57148 -0.4936,-0.55144 -0.49358,-0.49051 -0.53216,-0.44886 -0.54758,-0.42882 -0.59387,-0.40876 -0.57072,-0.34706 -0.65556,-0.327 -0.63243,-0.26531 -0.67097,-0.22444 -0.65555,-0.18429 -0.671,-0.14258 -0.69411,-0.0818 -0.69412,-0.0618 -0.69413,0 -0.69412,0.0618 -0.69411,0.0818 -0.671,0.14258 -0.67869,0.18429 -0.65555,0.22444 -0.65556,0.26531 -0.61701,0.327 -0.59384,0.34706 -0.59387,0.40876 -0.54758,0.42882 -0.53217,0.44886 -0.48588,0.49051 -0.48587,0.55144 -0.43192,0.57148 -0.39333,0.59233 -0.34705,0.63319 -0.32392,0.63319 -0.28537,0.65325 -0.2468,0.67406 -0.20053,0.69414 -0.14659,0.69411 -0.10027,0.73501 -0.0848,0.71493 0,0.71495 z"
       style="fill:#ff0000;fill-opacity:1;fill-rule:evenodd;stroke:none" />
    <path
       inkscape:connector-curvature="0"
       id="path4320"
       d="m 380.62003,177.46361 0,-0.71495 -0.0772,-0.71493 -0.12333,-0.73501 -0.16203,-0.69411 -0.18509,-0.69414 -0.2468,-0.67406 -0.28537,-0.65325 -0.33162,-0.63319 -0.34707,-0.63319 -0.38563,-0.59233 -0.4319,-0.57148 -0.4936,-0.55144 -0.49358,-0.49051 -0.53216,-0.44886 -0.54758,-0.42882 -0.59387,-0.40876 -0.57072,-0.34706 -0.65556,-0.327 -0.63243,-0.26531 -0.67097,-0.22444 -0.65555,-0.18429 -0.671,-0.14258 -0.69411,-0.0818 -0.69412,-0.0618 -0.69413,0 -0.69412,0.0618 -0.69411,0.0818 -0.671,0.14258 -0.67869,0.18429 -0.65555,0.22444 -0.65556,0.26531 -0.61701,0.327 -0.59384,0.34706 -0.59387,0.40876 -0.54758,0.42882 -0.53217,0.44886 -0.48588,0.49051 -0.48587,0.55144 -0.43192,0.57148 -0.39333,0.59233 -0.34705,0.63319 -0.32392,0.63319 -0.28537,0.65325 -0.2468,0.67406 -0.20053,0.69414 -0.14659,0.69411 -0.10027,0.73501 -0.0848,0.71493 0,0.71495"
       style="fill:none;stroke:#000000;stroke-width:2.45065212px;stroke-linecap:butt;stroke-linejoin:round;stroke-miterlimit:4;stroke-dasharray:none;stroke-opacity:1" />
    <path
       inkscape:connector-curvature="0"
       id="path4322"
       d="m 357.44101,179.95519 -2.22657,-0.10268 -2.36849,-0.30617 -2.28752,-0.55146 -2.20499,-0.75582 -2.08315,-0.91902 -1.98286,-1.10264 -1.83711,-1.30702 c -0.20054,-0.14258 -0.38563,-0.32701 -0.53216,-0.5314 l -2.24663,-3.41037 3.41122,-2.26692 2.24586,3.41053 -0.53216,-0.53061 1.49083,1.06177 1.67359,0.93937 1.71525,0.79647 1.83941,0.6332 1.878,0.46967 2.00292,0.3062 2.22426,0.10187 z m -22.34296,-4.2275 0.55528,-18.2573 14.27422,11.41597 z"
       style="fill:#ff0000;fill-opacity:1;fill-rule:nonzero;stroke:#ff0000;stroke-width:0.02042211px;stroke-linecap:butt;stroke-linejoin:round;stroke-miterlimit:4;stroke-dasharray:none;stroke-opacity:1" />
    <path
       inkscape:connector-curvature="0"
       id="path4324"
       d="m 335.44588,151.11901 5.04394,-7.43363 -3.38962,-2.28722 -5.04549,7.41322 3.39117,2.30763 z m 8.57624,-1.73584 2.41169,-18.11432 -15.93084,8.92439 13.51915,9.18993 z"
       style="fill:#ff0000;fill-opacity:1;fill-rule:nonzero;stroke:#ff0000;stroke-width:0.02042211px;stroke-linecap:butt;stroke-linejoin:round;stroke-miterlimit:4;stroke-dasharray:none;stroke-opacity:1" />
    <path
       inkscape:connector-curvature="0"
       id="path4326"
       d="m 344.4116,126.20401 c 0,-3.98208 3.16518,-7.20899 7.08542,-7.20899 3.90251,0 7.08699,3.22691 7.08699,7.20899 0,3.98241 -3.18448,7.20899 -7.08699,7.20899 -3.92024,0 -7.08542,-3.22658 -7.08542,-7.20899 z"
       style="fill:#0070c0;fill-opacity:1;fill-rule:evenodd;stroke:none" />
    <path
       inkscape:connector-curvature="0"
       id="path4328"
       d="m 344.4116,126.20401 c 0,-3.98208 3.16518,-7.20899 7.08542,-7.20899 3.90251,0 7.08699,3.22691 7.08699,7.20899 0,3.98241 -3.18448,7.20899 -7.08699,7.20899 -3.92024,0 -7.08542,-3.22658 -7.08542,-7.20899"
       style="fill:none;stroke:#548dd4;stroke-width:2.0422101px;stroke-linecap:butt;stroke-linejoin:round;stroke-miterlimit:4;stroke-dasharray:none;stroke-opacity:1" />
    <path
       inkscape:connector-curvature="0"
       id="path4330"
       d="m 149.33894,209.21987 0,0.71493 0.0848,0.71496 0.10027,0.71495 0.13883,0.71493 0.20823,0.67408 0.2468,0.69412 0.28536,0.65324 0.32392,0.63319 0.34707,0.61314 0.38562,0.59233 0.43189,0.55143 0.4936,0.55143 0.47046,0.51057 0.5553,0.44888 0.5553,0.4288 0.59385,0.40876 0.57073,0.32701 0.63242,0.32702 0.63242,0.28612 0.65556,0.22444 0.67098,0.18349 0.67098,0.12253 0.69412,0.10187 0.69413,0.0385 0.67098,0 0.71726,-0.0385 0.67098,-0.10187 0.67099,-0.12253 0.65555,-0.18349 0.67098,-0.22444 0.63243,-0.28612 0.65555,-0.32702 0.57073,-0.32701 0.59386,-0.40876 0.55529,-0.4288 0.53216,-0.44888 0.48588,-0.51057 0.47048,-0.55143 0.44731,-0.55143 0.38563,-0.59233 0.34705,-0.61314 0.32393,-0.63319 0.26222,-0.65324 0.2468,-0.69412 0.20053,-0.67408 0.1466,-0.71493 0.12333,-0.71495 0.0772,-0.71496 0,-0.71493 z"
       style="fill:#ff0000;fill-opacity:1;fill-rule:evenodd;stroke:none" />
    <path
       inkscape:connector-curvature="0"
       id="path4332"
       d="m 149.33894,209.21987 0,0.71493 0.0848,0.71496 0.10027,0.71495 0.13883,0.71493 0.20823,0.67408 0.2468,0.69412 0.28536,0.65324 0.32392,0.63319 0.34707,0.61314 0.38562,0.59233 0.43189,0.55143 0.4936,0.55143 0.47046,0.51057 0.5553,0.44888 0.5553,0.4288 0.59385,0.40876 0.57073,0.32701 0.63242,0.32702 0.63242,0.28612 0.65556,0.22444 0.67098,0.18349 0.67098,0.12253 0.69412,0.10187 0.69413,0.0385 0.67098,0 0.71726,-0.0385 0.67098,-0.10187 0.67099,-0.12253 0.65555,-0.18349 0.67098,-0.22444 0.63243,-0.28612 0.65555,-0.32702 0.57072,-0.32701 0.59387,-0.40876 0.55529,-0.4288 0.53216,-0.44888 0.48588,-0.51057 0.47048,-0.55143 0.44731,-0.55143 0.38563,-0.59233 0.34705,-0.61314 0.32393,-0.63319 0.26222,-0.65324 0.2468,-0.69412 0.20053,-0.67408 0.14659,-0.71493 0.12333,-0.71495 0.0772,-0.71496 0,-0.71493"
       style="fill:none;stroke:#000000;stroke-width:2.45065212px;stroke-linecap:butt;stroke-linejoin:round;stroke-miterlimit:4;stroke-dasharray:none;stroke-opacity:1" />
    <path
       inkscape:connector-curvature="0"
       id="path4334"
       d="m 170.90528,209.21987 0,-0.735 -0.0772,-0.6949 -0.12333,-0.75582 -0.14659,-0.69411 -0.20054,-0.69412 -0.2468,-0.67406 -0.26222,-0.67408 -0.32392,-0.6332 -0.34707,-0.61235 -0.38561,-0.59233 -0.44732,-0.57148 -0.47048,-0.55146 -0.48587,-0.51056 -0.53217,-0.44962 -0.55528,-0.42883 -0.59387,-0.40875 -0.57072,-0.34707 -0.65556,-0.32699 -0.63243,-0.26531 -0.67097,-0.22444 -0.65555,-0.18349 -0.67099,-0.14259 -0.67099,-0.0818 -0.71726,-0.0618 -0.67098,0 -0.69412,0.0618 -0.69412,0.0818 -0.67099,0.14259 -0.67098,0.18349 -0.65556,0.22444 -0.63242,0.26531 -0.63242,0.32699 -0.57072,0.34707 -0.59386,0.40875 -0.5553,0.42883 -0.55529,0.44962 -0.47046,0.51056 -0.4936,0.55146 -0.4319,0.57148 -0.38562,0.59233 -0.34706,0.61235 -0.32392,0.6332 -0.28536,0.67408 -0.2468,0.67406 -0.20824,0.69412 -0.13883,0.69411 -0.10027,0.75582 -0.0848,0.6949 0,0.735 z"
       style="fill:#ff0000;fill-opacity:1;fill-rule:evenodd;stroke:none" />
    <path
       inkscape:connector-curvature="0"
       id="path4336"
       d="m 170.90528,209.21987 0,-0.735 -0.0772,-0.6949 -0.12333,-0.75582 -0.14659,-0.69411 -0.20054,-0.69412 -0.2468,-0.67406 -0.26222,-0.67408 -0.32392,-0.6332 -0.34707,-0.61235 -0.38561,-0.59233 -0.44732,-0.57148 -0.47048,-0.55146 -0.48587,-0.51056 -0.53217,-0.44962 -0.55528,-0.42883 -0.59387,-0.40875 -0.57072,-0.34707 -0.65556,-0.32699 -0.63243,-0.26531 -0.67097,-0.22444 -0.65555,-0.18349 -0.67099,-0.14259 -0.67099,-0.0818 -0.71726,-0.0618 -0.67098,0 -0.69412,0.0618 -0.69412,0.0818 -0.67099,0.14259 -0.67098,0.18349 -0.65556,0.22444 -0.63242,0.26531 -0.63242,0.32699 -0.57072,0.34707 -0.59386,0.40875 -0.5553,0.42883 -0.55529,0.44962 -0.47046,0.51056 -0.4936,0.55146 -0.4319,0.57148 -0.38562,0.59233 -0.34706,0.61235 -0.32392,0.6332 -0.28536,0.67408 -0.2468,0.67406 -0.20824,0.69412 -0.13883,0.69411 -0.10027,0.75582 -0.0848,0.6949 0,0.735"
       style="fill:none;stroke:#000000;stroke-width:2.45065212px;stroke-linecap:butt;stroke-linejoin:round;stroke-miterlimit:4;stroke-dasharray:none;stroke-opacity:1" />
    <path
       inkscape:connector-curvature="0"
       id="path4338"
       d="m 157.42622,214.06005 -2.24587,-0.10187 -2.36926,-0.32699 -2.28752,-0.53062 -2.16411,-0.73501 -2.12401,-0.95988 -1.96051,-1.10265 -1.83865,-1.24573 c -0.22366,-0.14258 -0.40876,-0.34705 -0.55529,-0.57149 l -2.22582,-3.39008 3.41045,-2.24649 2.22659,3.41052 -0.5553,-0.57149 1.55175,1.08222 1.63349,0.93945 1.71602,0.79647 1.83788,0.61237 1.89881,0.46968 1.98133,0.3062 2.24664,0.10267 z m -22.32139,-4.16627 0.50903,-18.27774 14.2958,11.39568 z"
       style="fill:#ff0000;fill-opacity:1;fill-rule:nonzero;stroke:#ff0000;stroke-width:0.02042211px;stroke-linecap:butt;stroke-linejoin:round;stroke-miterlimit:4;stroke-dasharray:none;stroke-opacity:1" />
    <path
       inkscape:connector-curvature="0"
       id="path4340"
       d="m 136.96354,187.77662 5.06477,-7.51525 -3.36958,-2.28712 -5.08482,7.51517 3.38963,2.2872 z m 8.63872,-1.83788 2.36849,-18.11432 -15.92853,8.9857 13.56004,9.12862 z"
       style="fill:#ff0000;fill-opacity:1;fill-rule:nonzero;stroke:#ff0000;stroke-width:0.02042211px;stroke-linecap:butt;stroke-linejoin:round;stroke-miterlimit:4;stroke-dasharray:none;stroke-opacity:1" />
    <path
       inkscape:connector-curvature="0"
       id="path4342"
       d="m 146.50076,166.31316 c 0,-3.9824 3.16519,-7.20897 7.0862,-7.20897 3.92101,0 7.08698,3.22657 7.08698,7.20897 0,3.98233 -3.16597,7.20899 -7.08698,7.20899 -3.92101,0 -7.0862,-3.22666 -7.0862,-7.20899 z"
       style="fill:#0070c0;fill-opacity:1;fill-rule:evenodd;stroke:none" />
    <path
       inkscape:connector-curvature="0"
       id="path4344"
       d="m 146.50076,166.31316 c 0,-3.9824 3.16519,-7.20897 7.0862,-7.20897 3.92101,0 7.08698,3.22657 7.08698,7.20897 0,3.98233 -3.16597,7.20899 -7.08698,7.20899 -3.92101,0 -7.0862,-3.22666 -7.0862,-7.20899"
       style="fill:none;stroke:#548dd4;stroke-width:2.0422101px;stroke-linecap:butt;stroke-linejoin:round;stroke-miterlimit:4;stroke-dasharray:none;stroke-opacity:1" />
    <path
       inkscape:connector-curvature="0"
       id="path4346"
       d="m 132.08232,190.39076 c 0,-2.53223 2.08314,-4.57456 4.65678,-4.57456 2.57288,0 4.65601,2.04233 4.65601,4.57456 0,2.51188 -2.08313,4.5542 -4.65601,4.5542 -2.57364,0 -4.65678,-2.04232 -4.65678,-4.5542 z"
       style="fill:#ffffff;fill-opacity:1;fill-rule:evenodd;stroke:none" />
    <path
       inkscape:connector-curvature="0"
       id="path4348"
       d="m 136.7391,185.8162 0,9.12876 m -4.65678,-4.5542 9.31279,0"
       style="fill:none;stroke:#000000;stroke-width:2.0422101px;stroke-linecap:butt;stroke-linejoin:round;stroke-miterlimit:4;stroke-dasharray:none;stroke-opacity:1" />
    <path
       inkscape:connector-curvature="0"
       id="path4350"
       d="m 132.08232,190.39076 c 0,-2.53223 2.08314,-4.57456 4.65678,-4.57456 2.57288,0 4.65601,2.04233 4.65601,4.57456 0,2.51188 -2.08313,4.5542 -4.65601,4.5542 -2.57364,0 -4.65678,-2.04232 -4.65678,-4.5542"
       style="fill:none;stroke:#000000;stroke-width:2.0422101px;stroke-linecap:butt;stroke-linejoin:round;stroke-miterlimit:4;stroke-dasharray:none;stroke-opacity:1" />
    <path
       inkscape:connector-curvature="0"
       id="path4352"
       d="m 25.274852,349.39789 42.62134,0 0,0 63.941648,0 149.22288,0 0,-21.85331 0,0 0,-9.35296 0,-6.24911 -149.22288,0 -42.600516,-49.68587 -21.341132,49.68587 -42.62134,0 0,6.24911 0,9.35296 0,0 z"
       style="fill:#ffffff;fill-opacity:1;fill-rule:evenodd;stroke:none" />
    <path
       inkscape:connector-curvature="0"
       id="path4354"
       d="m 25.274852,349.39789 h 42.62134 v 0 h 63.941648 149.22288 v -21.85331 0 -9.35296 -6.24911 l -195.865007,0 4.041611,-49.68587 -21.341132,49.68587 h -42.62134 v 6.24911 9.35296 0 z"
       style="fill:none;stroke:#000000;stroke-width:2.04221px;stroke-linecap:butt;stroke-linejoin:miter;stroke-miterlimit:8;stroke-dasharray:none;stroke-opacity:1"
       sodipodi:nodetypes="ccccccccccccccccc" />
    <path
       inkscape:connector-curvature="0"
       id="path4404"
       d="m 182.58656,150.03682 20.44262,0 0,-3.22691 5.88153,6.45347 -5.88153,6.45333 0,-3.22666 -20.44262,0 z"
       style="fill:#ffffff;fill-opacity:1;fill-rule:evenodd;stroke:none" />
    <path
       inkscape:connector-curvature="0"
       id="path4406"
       d="m 182.58656,150.03682 20.44262,0 0,-3.22691 5.88153,6.45347 -5.88153,6.45333 0,-3.22666 -20.44262,0 z"
       style="fill:none;stroke:#000000;stroke-width:2.0422101px;stroke-linecap:butt;stroke-linejoin:miter;stroke-miterlimit:8;stroke-dasharray:none;stroke-opacity:1" />
    <path
       inkscape:connector-curvature="0"
       id="path4408"
       d="m 281.48953,270.11864 17.07384,-11.21181 -1.7569,-2.69466 8.45671,2.16358 -1.38901,8.63901 -1.75614,-2.69681 -17.09311,11.19216 z"
       style="fill:#ffffff;fill-opacity:1;fill-rule:evenodd;stroke:none" />
    <path
       inkscape:connector-curvature="0"
       id="path4410"
       d="m 281.48953,270.11864 17.07384,-11.21181 -1.7569,-2.69466 8.45671,2.16358 -1.38901,8.63901 -1.75614,-2.69681 -17.09311,11.19216 z"
       style="fill:none;stroke:#000000;stroke-width:2.0422101px;stroke-linecap:butt;stroke-linejoin:miter;stroke-miterlimit:8;stroke-dasharray:none;stroke-opacity:1" />
    <path
       inkscape:connector-curvature="0"
       id="path4412"
       d="m 255.73842,100.32943 -19.99222,-4.595086 -0.73268,3.144987 -4.30972,-7.658251 7.23043,-4.98294 -0.7327,3.165281 19.99224,4.595003 z"
       style="fill:#ffffff;fill-opacity:1;fill-rule:evenodd;stroke:none" />
    <path
       inkscape:connector-curvature="0"
       id="path4414"
       d="m 255.73842,100.32943 -19.99222,-4.595086 -0.73268,3.144987 -4.30972,-7.658251 7.23043,-4.98294 -0.7327,3.165281 19.99224,4.595003 z"
       style="fill:none;stroke:#000000;stroke-width:2.0422101px;stroke-linecap:butt;stroke-linejoin:miter;stroke-miterlimit:8;stroke-dasharray:none;stroke-opacity:1" />
    <path
       inkscape:connector-curvature="0"
       id="path4416"
       d="m 210.38072,228.8864 -20.52363,0 0,3.22681 -5.92239,-6.43304 5.92239,-6.43295 0,3.20637 20.52363,0 z"
       style="fill:#ffffff;fill-opacity:1;fill-rule:evenodd;stroke:none" />
    <path
       inkscape:connector-curvature="0"
       id="path4418"
       d="m 210.38072,228.8864 -20.52363,0 0,3.22681 -5.92239,-6.43304 5.92239,-6.43295 0,3.20637 20.52363,0 z"
       style="fill:none;stroke:#000000;stroke-width:2.0422101px;stroke-linecap:butt;stroke-linejoin:miter;stroke-miterlimit:8;stroke-dasharray:none;stroke-opacity:1" />
    <path
       inkscape:connector-curvature="0"
       id="path4420"
       d="m 294.47963,311.94251 59.38573,0 -56.81287,-39.51669 56.81287,39.51669 168.83197,0 v 6.24911 0 9.37472 21.87074 H 389.5634 332.50588 v 0 h -38.02625 v -21.87074 -9.37472 0 z"
       style="fill:#ffffff;fill-opacity:1;fill-rule:evenodd;stroke:none"
       sodipodi:nodetypes="ccccccccccccccccc" />
    <path
       inkscape:connector-curvature="0"
       id="path4422"
       d="m 294.47963,311.94251 h 38.02625 l -35.45339,-39.51669 56.81287,39.51669 h 168.83197 v 6.24911 0 9.37472 21.87074 H 389.5634 332.50588 v 0 h -38.02625 v -21.87074 -9.37472 0 z"
       style="fill:none;stroke:#000000;stroke-width:2.04221px;stroke-linecap:butt;stroke-linejoin:miter;stroke-miterlimit:8;stroke-dasharray:none;stroke-opacity:1"
       sodipodi:nodetypes="ccccccccccccccccc" />
    <text
       xml:space="preserve"
       style="font-style:normal;font-weight:normal;line-height:0%;font-family:sans-serif;letter-spacing:0px;word-spacing:0px;fill:#000000;fill-opacity:1;stroke:none;stroke-width:1px;stroke-linecap:butt;stroke-linejoin:miter;stroke-opacity:1"
       x="256.58615"
       y="370.46112"
       id="text5688"><tspan
         sodipodi:role="line"
         id="tspan5690"
         x="256.58615"
         y="370.46112"
         style="font-size:40px;line-height:1.25"> </tspan></text>
    <text
       xml:space="preserve"
       style="font-style:normal;font-weight:normal;line-height:0%;font-family:sans-serif;letter-spacing:0px;word-spacing:0px;fill:#000000;fill-opacity:1;stroke:none;stroke-width:1px;stroke-linecap:butt;stroke-linejoin:miter;stroke-opacity:1"
       x="34.332401"
       y="51.215614"
       id="text5692"><tspan
         sodipodi:role="line"
         id="tspan5694"
         x="34.332401"
         y="51.215614"
         style="font-size:17.5px;line-height:1.25">Контур детали</tspan></text>
    <text
       xml:space="preserve"
       style="font-style:normal;font-weight:normal;line-height:0%;font-family:sans-serif;letter-spacing:0px;word-spacing:0px;fill:#000000;fill-opacity:1;stroke:none;stroke-width:1px;stroke-linecap:butt;stroke-linejoin:miter;stroke-opacity:1"
       x="203.25397"
       y="46.082092"
       id="text5696"><tspan
         sodipodi:role="line"
         id="tspan5698"
         x="203.25397"
         y="46.082092"
         style="font-size:17.5px;line-height:1.25">Выход</tspan></text>
    <text
       xml:space="preserve"
       style="font-style:normal;font-weight:normal;line-height:0%;font-family:sans-serif;letter-spacing:0px;word-spacing:0px;fill:#000000;fill-opacity:1;stroke:none;stroke-width:1px;stroke-linecap:butt;stroke-linejoin:miter;stroke-opacity:1"
       x="317.43979"
       y="45.78891"
       id="text5700"><tspan
         sodipodi:role="line"
         id="tspan5702"
         x="317.43979"
         y="45.78891"
         style="font-size:17.5px;line-height:1.25">Точка выключения инструмента</tspan></text>
    <text
       xml:space="preserve"
       style="font-style:normal;font-weight:normal;line-height:0.95;font-family:sans-serif;letter-spacing:0px;word-spacing:0px;fill:#000000;fill-opacity:1;stroke:none;stroke-width:1px;stroke-linecap:butt;stroke-linejoin:miter;stroke-opacity:1"
       x="427.59"
       y="191.18265"
       id="text5704"><tspan
         sodipodi:role="line"
         x="427.59"
         y="191.18265"
         style="font-size:17.5px"
         id="tspan11098">Точка врезки</tspan></text>
    <text
       xml:space="preserve"
       style="font-style:normal;font-weight:normal;line-height:0.95;font-family:sans-serif;letter-spacing:0px;word-spacing:0px;fill:#000000;fill-opacity:1;stroke:none;stroke-width:1px;stroke-linecap:butt;stroke-linejoin:miter;stroke-opacity:1"
       x="362.87506"
       y="288.37738"
       id="text5704-7"><tspan
         sodipodi:role="line"
         x="362.87506"
         y="288.37738"
         style="font-size:17.5px"
         id="tspan11098-0">Холостой ход</tspan></text>
    <text
       xml:space="preserve"
       style="font-style:normal;font-weight:normal;line-height:0%;font-family:sans-serif;letter-spacing:0px;word-spacing:0px;fill:#000000;fill-opacity:1;stroke:none;stroke-width:1px;stroke-linecap:butt;stroke-linejoin:miter;stroke-opacity:1"
       x="368.07724"
       y="244.49039"
       id="text5708"><tspan
         sodipodi:role="line"
         id="tspan5710"
         x="368.07724"
         y="244.49039"
         style="font-size:17.5px;line-height:1.25">Вход</tspan></text>
    <text
       xml:space="preserve"
       style="font-style:normal;font-weight:normal;line-height:0%;font-family:sans-serif;letter-spacing:0px;word-spacing:0px;fill:#000000;fill-opacity:1;stroke:none;stroke-width:1px;stroke-linecap:butt;stroke-linejoin:miter;stroke-opacity:1"
       x="319.12778"
       y="334.9263"
       id="text5712"><tspan
         sodipodi:role="line"
         id="tspan5714"
         x="319.12778"
         y="334.9263"
         style="font-size:17.5px;line-height:1.25">Направление резки</tspan></text>
    <text
       xml:space="preserve"
       style="font-style:normal;font-weight:normal;line-height:0%;font-family:sans-serif;letter-spacing:0px;word-spacing:0px;fill:#000000;fill-opacity:1;stroke:none;stroke-width:1px;stroke-linecap:butt;stroke-linejoin:miter;stroke-opacity:1"
       x="44.333199"
       y="336.36221"
       id="text5716"><tspan
         sodipodi:role="line"
         id="tspan5718"
         x="44.333199"
         y="336.36221"
         style="font-size:17.5px;line-height:1.25">Эквидистантный контур</tspan></text>
    <text
       xml:space="preserve"
       style="font-style:normal;font-weight:normal;line-height:0%;font-family:sans-serif;letter-spacing:0px;word-spacing:0px;fill:#000000;fill-opacity:1;stroke:none;stroke-width:1px;stroke-linecap:butt;stroke-linejoin:miter;stroke-opacity:1"
       x="408.33148"
       y="125.08743"
       id="text5720"><tspan
         sodipodi:role="line"
         x="408.33148"
         y="125.08743"
         id="tspan5724"
         style="font-size:17.5px;line-height:1.25">Точка входа в</tspan><tspan
         sodipodi:role="line"
         x="408.33148"
         y="146.96242"
         style="font-size:17.5px;line-height:1.25"
         id="tspan3344">эквидистанту контура</tspan></text>
    <path
       style="fill:none;stroke:#0000ff;stroke-width:1.875;stroke-linecap:butt;stroke-linejoin:miter;stroke-miterlimit:4;stroke-dasharray:5.62500001, 5.62500001;stroke-opacity:1;stroke-dashoffset:0;marker-end:url(#Arrow1Mend)"
       d="m 161.04798,167.38851 196.57273,8.50165"
       id="path2196"
       sodipodi:nodetypes="cc" />
  </g>
</svg>
